<svg xmlns="http://www.w3.org/2000/svg" x="0px" y="0px"
width="48" height="48"
viewBox="0 0 172 172"
style=" fill:#000000;"><g fill="none" fill-rule="nonzero" stroke="none" stroke-width="1" stroke-linecap="butt" stroke-linejoin="miter" stroke-miterlimit="10" stroke-dasharray="" stroke-dashoffset="0" font-family="none" font-weight="none" font-size="none" text-anchor="none" style="mix-blend-mode: normal"><path d="M0,172v-172h172v172z" fill="none"></path><g><path d="M118.25,28.66667c0,-7.91558 -6.41775,-14.33333 -14.33333,-14.33333c-7.91558,0 -14.33333,6.41775 -14.33333,14.33333c0,4.4935 0,34.90525 0,39.41667c0,7.91558 6.41775,14.33333 14.33333,14.33333c7.91558,0 14.33333,-6.41775 14.33333,-14.33333c0,-4.51142 0,-34.92317 0,-39.41667z" fill="#33d375"></path><path d="M154.08333,68.08333c0,7.91558 -6.41775,14.33333 -14.33333,14.33333c-4.28208,0 -14.33333,0 -14.33333,0c0,0 0,-10.69983 0,-14.33333c0,-7.91558 6.41775,-14.33333 14.33333,-14.33333c7.91558,0 14.33333,6.41775 14.33333,14.33333z" fill="#33d375"></path><path d="M28.66667,50.16667c-7.91558,0 -14.33333,6.41775 -14.33333,14.33333c0,7.91558 6.41775,14.33333 14.33333,14.33333c4.4935,0 34.90525,0 39.41667,0c7.91558,0 14.33333,-6.41775 14.33333,-14.33333c0,-7.91558 -6.41775,-14.33333 -14.33333,-14.33333c-4.51142,0 -34.92317,0 -39.41667,0z" fill="#40c4ff"></path><path d="M68.08333,14.33333c7.91558,0 14.33333,6.41775 14.33333,14.33333c0,4.28208 0,14.33333 0,14.33333c0,0 -10.69983,0 -14.33333,0c-7.91558,0 -14.33333,-6.41775 -14.33333,-14.33333c0,-7.91558 6.41775,-14.33333 14.33333,-14.33333z" fill="#40c4ff"></path><path d="M50.16667,139.7715c0,7.90483 6.41775,14.31183 14.33333,14.31183c7.91558,0 14.33333,-6.407 14.33333,-14.31183c0,-4.48633 0,-34.85508 0,-39.35933c0,-7.90483 -6.41775,-14.31183 -14.33333,-14.31183c-7.91558,0 -14.33333,6.407 -14.33333,14.31183c0,4.50425 0,34.873 0,39.35933z" fill="#e91e63"></path><path d="M14.33333,100.41217c0,-7.90483 6.41775,-14.31183 14.33333,-14.31183c4.28208,0 14.33333,0 14.33333,0c0,0 0,10.68192 0,14.31183c0,7.90483 -6.41775,14.31183 -14.33333,14.31183c-7.91558,0 -14.33333,-6.407 -14.33333,-14.31183z" fill="#e91e63"></path><path d="M139.75,118.25c7.91558,0 14.33333,-6.41775 14.33333,-14.33333c0,-7.91558 -6.41775,-14.33333 -14.33333,-14.33333c-4.4935,0 -34.90525,0 -39.41667,0c-7.91558,0 -14.33333,6.41775 -14.33333,14.33333c0,7.91558 6.41775,14.33333 14.33333,14.33333c4.50783,0 34.92317,0 39.41667,0z" fill="#ffc107"></path><path d="M100.33333,154.08333c-7.91558,0 -14.33333,-6.41775 -14.33333,-14.33333c0,-4.28208 0,-14.33333 0,-14.33333c0,0 10.69983,0 14.33333,0c7.91558,0 14.33333,6.41775 14.33333,14.33333c0,7.91558 -6.41775,14.33333 -14.33333,14.33333z" fill="#ffc107"></path></g></g></svg>